# xmcd CD database file
#
# Track frame offsets:
#	150
#	19072
#	47105
#	73610
#	94330
#	118216
#	142436
#	163285
#	187320
#	208029
#
# Disc length: 3129 seconds
#
# Revision: 0
# Processed by: cddbd v1.5.2PL0 Copyright (c) Steve Scherf et al.
# Submitted via: CDex 1.51
#
DISCID=a60c370a
DTITLE=Alex Wilson - Salsa con Soul
DYEAR=2008
DGENRE=Salsa
TTITLE0=You're Fine
TTITLE1=Sabroson
TTITLE2=Rhythm and Life
TTITLE3=Antonio
TTITLE4=Mi Buenaventura
TTITLE5=Stronger
TTITLE6=This Time
TTITLE7=Let's Stay Together
TTITLE8=Memories
TTITLE9=Rio de Janeiro Blue
EXTD=YEAR: 2008
EXTT0=
EXTT1=
EXTT2=
EXTT3=
EXTT4=
EXTT5=
EXTT6=
EXTT7=
EXTT8=
EXTT9=
PLAYORDER=
